<?xml version="1.0" encoding="UTF-8"?>
<svg width="88px" height="40px" viewBox="0 0 88 40" version="1.1" xmlns="http://www.w3.org/2000/svg" xmlns:xlink="http://www.w3.org/1999/xlink">
    <!-- Generator: Sketch 57.1 (83088) - https://sketch.com -->
    <title>Brand / Inverse / Claro</title>
    <desc>Created with Sketch.</desc>
    <g id="Brand-/-Inverse-/-Claro" stroke="none" stroke-width="1" fill="none" fill-rule="evenodd">
        <g id="Group" transform="translate(-0.000000, 0.071696)" fill="#FFFFFF">
            <path d="M68.4991138,26.0818228 C67.6216562,27.0023291 66.5458608,27.4377722 65.2701102,27.4377722 C64.033178,27.4377722 62.9577869,27.0023291 62.0781053,26.0818228 C61.2012542,25.1637468 60.7216852,24.0838481 60.7216852,22.8473924 C60.7216852,21.5291139 61.2012542,20.4512405 62.0781053,19.5728608 C62.9577869,18.6515443 64.033178,18.2140759 65.2701102,18.2537722 C66.5458608,18.2140759 67.6216562,18.6515443 68.53773,19.5728608 C69.3745496,20.4512405 69.8142893,21.5291139 69.8549274,22.8473924 C69.8142893,24.0838481 69.3745496,25.1637468 68.4991138,26.0818228 M71.4088765,16.6555949 C69.6941949,14.9395443 67.6216562,14.0998481 65.2701102,14.0998481 C62.9181598,14.0998481 60.881609,14.9395443 59.2099915,16.6555949 C57.4947034,18.3732658 56.6564685,20.4512405 56.6564685,22.8473924 C56.6564685,25.2441519 57.4947034,27.3211139 59.2099915,28.9990886 C60.881609,30.7161519 62.9181598,31.5927089 65.2701102,31.5927089 C67.6216562,31.5927089 69.6941949,30.7161519 71.4088765,28.9990886 C73.0843354,27.3211139 73.9215593,25.2441519 73.9215593,22.8473924 C73.9215593,20.4512405 73.0843354,18.3732658 71.4088765,16.6555949" id="Fill-7"></path>
            <path d="M10.685776,9.82481013 C7.69736562,9.78673418 5.22370339,10.8243038 3.15116465,12.9822785 C1.03495521,15.0977215 -1.77635684e-15,17.6139747 -1.77635684e-15,20.6104304 C-1.77635684e-15,23.5647595 1.03495521,26.1624304 3.15116465,28.2786835 C5.22370339,30.3560506 7.69736562,31.395443 10.685776,31.395443 C13.0781622,31.395443 15.2709976,30.6762532 17.1838148,29.1985823 C19.0598354,27.6816203 20.2945436,25.8027342 20.9324189,23.4853671 L16.5867797,23.4853671 C16.0279564,24.6051646 15.2303596,25.523443 14.2346271,26.2397975 C13.1177893,26.9221266 11.9609201,27.2795949 10.685776,27.2795949 C8.85261743,27.2795949 7.29745521,26.6007089 6.02130024,25.3239494 C4.70652906,24.0054684 4.06764286,22.448 4.10646126,20.6104304 C4.06764286,18.7736709 4.70652906,17.2153924 6.02130024,15.8958987 C7.29745521,14.6173165 8.85261743,13.9416709 10.685776,13.9416709 C11.9609201,13.9416709 13.1177893,14.300557 14.2346271,15.0193418 C15.2303596,15.6988354 16.0279564,16.6562025 16.5867797,17.7739747 L20.9324189,17.7739747 C20.2945436,15.4588354 19.0598354,13.5386329 17.1838148,12.0644051 C15.2709976,10.547038 13.0781622,9.78673418 10.685776,9.82481013" id="Fill-8"></path>
            <path d="M38.7549177,23.4466835 L39.5515036,23.0065823 L39.5515036,24.6847595 C39.5515036,26.1229367 39.1538172,27.1222278 38.3952409,27.6816203 C37.5982506,28.2387848 36.7612288,28.518481 35.8061344,28.518481 C35.2074818,28.518481 34.7275085,28.3572658 34.3284068,28.0388861 C33.9299116,27.6816203 33.7313717,27.1603038 33.7313717,26.4020253 C33.7313717,25.5613165 34.0506126,24.9632405 34.7275085,24.5237468 C35.126408,24.284962 35.8061344,24.0842532 36.6817724,23.9667848 L38.7549177,23.4466835 Z M37.0000024,14.0629873 C34.2095254,14.0208608 32.2562724,14.777519 31.1394346,16.2576203 C30.4214964,17.1756962 30.0640436,18.3732658 29.9425339,19.8912405 L34.091655,19.8912405 C34.170707,19.1726582 34.4092785,18.6936709 34.6884879,18.3732658 C35.126408,17.8136709 35.8447506,17.5327595 36.8811211,17.5742785 C37.7579722,17.5327595 38.4368898,17.6941772 38.9138305,17.974481 C39.3919843,18.2140759 39.5933547,18.6936709 39.6337906,19.3721519 C39.6337906,19.9321519 39.3145496,20.3728608 38.6752591,20.6507342 L35.4877022,21.1686076 C34.0087615,21.3699241 32.8148935,21.7282025 31.897,22.2472911 C30.3426465,23.1671899 29.586092,24.643443 29.6228886,26.7621266 C29.586092,28.2387848 30.0640436,29.4379747 31.0179249,30.3163544 C31.8587881,31.0373671 33.0138378,31.4351392 34.4092785,31.475038 C36.6817724,31.4351392 38.4773257,30.8775696 39.7508523,29.7567595 L39.7508523,31.475038 L43.899569,31.475038 L43.899569,19.2526582 C43.899569,17.2558987 43.1810242,15.8562025 41.8239976,15.1386329 C40.3885254,14.3785316 38.794747,14.0208608 37.0000024,14.0629873 L37.0000024,14.0629873 Z" id="Fill-10"></path>
            <polygon id="Fill-11" points="23.0468087 31.475038 27.191684 31.475038 27.191684 9.82481013 23.0468087 9.82481013"></polygon>
            <path d="M53.5873886,14.659443 C52.4711574,15.0987342 51.4754249,15.8562025 50.6367857,17.0161013 L50.6367857,14.8988354 L46.6884286,14.8577215 L46.6884286,31.475038 L50.7969116,31.475038 L50.7969116,23.5242532 C50.7969116,22.1691139 50.9550157,21.2097215 51.3136816,20.6104304 C51.5953172,19.9718481 52.1128959,19.4517468 52.7491538,19.0138734 C53.4679007,18.5324557 54.2248596,18.2946835 55.023063,18.2946835 L56.2984092,18.3724557 L56.2585799,14.1393418 L55.182178,14.2193418 L53.5873886,14.659443" id="Fill-12"></path>
            <polyline id="Fill-13" points="74.6384867 14.7388354 84.6493886 4.71453165 82.0137809 2.07696203 72.0071247 12.1036962 74.6384867 14.7388354"></polyline>
            <polygon id="Fill-14" points="63.9149031 10.7449114 67.6216562 10.7449114 67.6216562 -7.90478794e-14 63.9149031 -7.90478794e-14"></polygon>
            <polygon id="Fill-15" points="76.4728584 22.6092152 87.4382482 22.6092152 87.4382482 18.8923544 76.4728584 18.8923544"></polygon>
        </g>
    </g>
</svg>